# Tiled2Unity generated file. Do not modify by hand.
# Wavefront file for 'test_area3_mesh_0004.obj'

# Vertices (Count = 12)
v -576 -544 0
v -592 -544 0
v -592 -528 0
v -576 -528 0
v -560 -544 0
v -576 -544 0
v -576 -528 0
v -560 -528 0
v -592 -560 0
v -608 -560 0
v -608 -544 0
v -592 -544 0

# Texture cooridinates (Count = 12)
vt 0.5796675 0.7111487
vt 0.5959523 0.7111487
vt 0.5959523 0.7413228
vt 0.5796675 0.7413228
vt 0.5621055 0.7111487
vt 0.5783903 0.7111487
vt 0.5783903 0.7413228
vt 0.5621055 0.7413228
vt 0.9133452 0.4525936
vt 0.92963 0.4525936
vt 0.92963 0.4827676
vt 0.9133452 0.4827676

# Normal
vn 0 0 -1

# Mesh description
g test_area3_mesh_0004

# Faces
f 1/1/1 2/2/1 3/3/1 4/4/1
f 5/5/1 6/6/1 7/7/1 8/8/1
f 9/9/1 10/10/1 11/11/1 12/12/1

